<?xml version="1.0" encoding="UTF-8" standalone="no"?>
<!-- Created with Inkscape (http://www.inkscape.org/) -->

<svg
   xmlns:dc="http://purl.org/dc/elements/1.1/"
   xmlns:cc="http://creativecommons.org/ns#"
   xmlns:rdf="http://www.w3.org/1999/02/22-rdf-syntax-ns#"
   xmlns:svg="http://www.w3.org/2000/svg"
   xmlns="http://www.w3.org/2000/svg"
   xmlns:sodipodi="http://sodipodi.sourceforge.net/DTD/sodipodi-0.dtd"
   xmlns:inkscape="http://www.inkscape.org/namespaces/inkscape"
   width="293.00003"
   height="402.62891"
   id="svg8760"
   version="1.1"
   inkscape:version="0.48.4 r9939"
   sodipodi:docname="fingerprint.svg">
  <defs
     id="defs8762" />
  <sodipodi:namedview
     id="base"
     pagecolor="#ffffff"
     bordercolor="#666666"
     borderopacity="1.0"
     inkscape:pageopacity="0.0"
     inkscape:pageshadow="2"
     inkscape:zoom="0.35"
     inkscape:cx="-127.76786"
     inkscape:cy="175.60657"
     inkscape:document-units="px"
     inkscape:current-layer="layer1"
     showgrid="false"
     fit-margin-top="0"
     fit-margin-left="0"
     fit-margin-right="0"
     fit-margin-bottom="0"
     inkscape:window-width="1600"
     inkscape:window-height="838"
     inkscape:window-x="-8"
     inkscape:window-y="-8"
     inkscape:window-maximized="1" />
  <metadata
     id="metadata8765">
    <rdf:RDF>
      <cc:Work
         rdf:about="">
        <dc:format>image/svg+xml</dc:format>
        <dc:type
           rdf:resource="http://purl.org/dc/dcmitype/StillImage" />
        <dc:title></dc:title>
      </cc:Work>
    </rdf:RDF>
  </metadata>
  <g
     inkscape:label="Ebene 1"
     inkscape:groupmode="layer"
     id="layer1"
     transform="translate(69.375,-305.33983)">
    <path
       id="path2830"
       d="m 98.521906,707.56948 c -8.6122,-2.79888 -18.72932,-17.74338 -4.04391,-7.53813 2.7138,1.17738 12.843254,5.87425 4.04391,7.53813 z m 14.039164,-6.90638 c -15.114414,-2.30512 -26.684324,-14.6345 -36.488524,-25.38687 -10.75716,-14.46388 -15.73884,-31.51875 -25.98219,-46.37475 -5.4508,-4.12263 -11.01929,-28.4015 -3.41869,-23.8265 3.17738,21.7495 18.56208,38.77025 27.33573,58.34062 9.45097,12.59213 19.72087,25.26888 34.385454,32.092 3.64244,1.20413 13.51652,8.992 4.16822,5.1555 z m 26.81369,-10.41487 c -4.75517,-5.97613 4.16704,-1.882 0,0 z m -25.86322,1.17587 c -15.881794,-7.78225 -27.644204,-22.40987 -37.677594,-36.46012 -8.98028,-14.79775 -18.54541,-29.329 -23.12841,-46.16175 -4.26272,-13.90225 -6.85088,-32.93688 0.302,-44.981 0.90903,15.14375 -2.28655,34.79325 5.52015,50.43787 6.02221,14.55613 13.1672,27.685 22.92957,40.298 9.65085,12.95138 20.531484,25.26863 34.127544,34.20725 14.08122,-0.78737 5.29665,11.2765 -2.07326,2.65975 z m 19.75181,-2.21587 c -14.84856,-2.6565 11.88882,-7.07263 0,0 z m 10.72806,-6.54088 c -18.73694,-2.69975 -30.15237,-20.02175 -42.5375,-31.77462 0.24315,-16.904 22.13463,12.512 26.64034,19.04437 5.0515,7.8515 20.57629,9.19038 23.81516,11.29463 -2.37,1.23887 -5.23126,2.26775 -7.918,1.43562 z m 18.23494,-8.491 c -0.79886,-3.47525 3.90952,0.868 0,0 z m -41.76361,11.03125 c -14.1438,-8.03062 -23.396504,-21.65862 -33.173694,-33.83875 -7.40175,-13.41575 6.7496,-7.04862 7.82709,1.87413 6.430764,12.5015 26.197484,19.94625 27.310774,32.539 -0.65402,-0.19388 -1.30799,-0.38775 -1.96509,-0.57125 z m 33.2577,-11.44112 c -8.33968,0.71537 -31.2018,-8.71163 -23.6719,-14.1045 4.7487,7.48025 23.30212,6.63287 23.6719,14.1045 z m 16.42878,-5.857 c -15.90562,0.74625 -29.407,-9.84063 -43.84686,-14.58675 10.96516,-4.62788 27.76456,8.9875 41.61161,10.54737 2.21992,0.62538 9.04217,5.93913 2.23525,4.03938 z M 79.639306,694.7291 c -13.48114,-17.09625 17.45405,1.03238 0,0 z m 95.538544,-36.082 c -7.9064,0.78888 -32.33759,-5.73587 -24.18309,-11.01575 9.14338,2.401 24.65331,7.44288 29.19234,10.45813 -1.42479,0.94987 -3.42029,1.51275 -5.00925,0.55762 z M 70.223096,696.1106 c -0.37326,-3.89637 4.39856,1.45538 0,0 z m -5.57736,-2.70587 c -12.32584,-9.18888 -19.57237,-23.57038 -22.57844,-38.08213 -5.9271,-12.94975 -3.35806,-27.48625 -8.31316,-40.79662 -0.19608,-15.58138 -5.591128,-31.0685 -2.37288,-46.77988 1.6075,-9.53237 5.008,-21.1675 14.89796,-23.36162 -5.32386,-9.70725 8.29437,-4.22688 9.06258,-15.44825 11.77816,-14.61388 27.94211,-24.562 43.99797,-33.81975 26.551374,-2.94713 51.246644,9.379 72.453704,24.04275 15.72215,7.77025 27.50874,21.67375 43.60923,28.739 7.34535,5.00987 6.55695,17.265 -2.48525,6.63912 -12.66919,-8.994 -28.40021,-14.5485 -38.74986,-26.02087 -13.54653,-11.00688 -27.99765,-19.11363 -43.86194,-25.96513 -17.1325,-4.569 -37.302304,-3.76687 -50.681834,9.52913 -17.95571,12.07162 -30.93571,30.7635 -34.57067,52.2025 -8.00194,7.61337 4.43305,-26.39275 -6.24529,-7.90225 -6.83935,14.77575 -1.9873,31.62137 -1.86329,47.19862 4.10015,16.89388 3.64774,33.05513 8.79505,49.23575 4.61642,15.081 13.87733,28.72125 23.54947,40.45913 l -1.23505,0.601 -3.40799,-0.47063 -3.1e-4,1.3e-4 z M 188.21266,651.32585 c -16.60161,-2.08262 -32.39246,-8.41612 -46.97535,-15.9425 -9.73745,-5.58 -1.78542,-21.3655 4.82184,-8.323 12.74245,13.78825 33.16047,11.91 46.98479,22.506 l -1.15262,0.95938 -3.67866,0.80012 0,0 z m 12.96784,-9.161 c -6.77245,-9.19187 11.26096,-2.57625 0,0 z m -127.677044,40.0535 c -2.70585,-3.37937 4.27098,-0.07 0,0 z M 184.5942,637.95048 c -15.43131,-2.9945 -29.75571,-9.77013 -40.55175,-21.248 -14.3985,-13.03388 -26.56098,-30.279 -32.81531,-49.17025 4.77152,-7.11763 10.20401,14.589 15.32895,17.50162 6.89205,14.98938 17.84752,21.45875 28.1169,34.1625 11.62705,6.33625 28.92301,13.421 42.35247,17.94513 -1.82661,5.42225 -8.87445,3.229 -12.43126,0.809 z M 66.198216,680.61623 c -10.76327,-12.30025 -13.22255,-29.27038 -19.56528,-43.88325 5.80703,-4.80325 8.13143,19.54087 15.09258,25.07987 0.005,4.70688 18.92598,22.49775 4.4727,18.80338 z m 138.937894,-48.856 c -15.38026,-3.63663 -29.99302,-7.95713 -42.01941,-16.3955 -12.52666,-11.04713 -26.04995,-22.43263 -34.45695,-37.08225 11.07095,-6.79025 15.17891,21.60287 28.22454,20.72862 9.39646,15.31538 30.95063,25.13663 49.43966,27.15963 7.01822,1.28312 6.30347,6.71437 -1.18784,5.5895 z m -62.3667,17.4115 C 130.2879,648.16098 110.7092,629.7506 117.5882,619.78298 c 10.32089,7.04662 12.7954,22.39887 27.3847,24.78762 0.3012,0.99163 -0.0521,7.11663 -2.20349,4.60113 z m -100.224794,33.879 c -9.10227,-11.47075 -7.51087,-27.73925 -13.66792,-40.38988 -6.386213,-16.11375 -5.8235,-34.227 -6.557425,-51.92862 0.599175,-12.7205 -6.264425,-10.707 -5.297675,0.48275 0.456475,14.14137 0.22815,28.0785 3.090087,42.28462 -4.01905,11.71813 17.165763,19.12288 5.839113,31.29913 -19.9941385,-9.35313 -6.411063,-36.5515 -11.584338,-53.9655 -1.945887,-14.92313 -2.672587,-30.98888 7.193688,-43.45338 3.1718,-7.86737 9.80419,-28.37262 14.84262,-26.11237 -7.26407,16.87875 -16.32042,33.84887 -10.36952,52.67312 2.096025,18.17613 2.26165,36.24888 8.66564,54.3705 3.11487,11.4485 7.74905,22.7695 7.84573,34.73963 z M 24.977071,656.3031 c -0.26655,-12.95887 -10.3955,9.61438 0,0 z m 94.772229,-6.43087 c -12.95551,-8.39813 -18.99455,-22.44113 -23.320804,-36.44338 -4.43938,-7.06175 -11.10666,-34.0565 -1.62244,-14.00687 6.486234,14.694 13.133384,31.72275 25.466334,41.51475 3.40655,1.59 7.66507,16.02987 -0.52309,8.9355 z m 89.23986,-29.1295 c -0.44729,-14.84488 -24.54975,-15.56113 -33.05035,-26.89338 -11.99189,-9.59312 -23.84692,-18.464 -32.47882,-31.21462 -10.56524,-8.59638 -29.07573,-26.30563 -40.80694,-10.63488 -12.100184,15.31038 -0.64253,34.44413 5.55694,49.677 5.78367,4.8575 10.53773,21.2575 -0.65119,12.32475 -5.51168,-14.51575 -13.101594,-28.70075 -15.076064,-44.30475 -0.41248,-13.08487 9.243284,-31.09237 24.162434,-29.99562 19.30334,6.61537 32.74418,22.7395 46.82437,36.71637 13.15152,11.668 26.55058,22.7575 42.37238,30.784 6.97082,0.95138 12.69474,12.25725 3.14724,13.54113 z m -8.26407,-0.40325 c -26.78852,-6.49925 -45.56647,-28.7735 -63.70372,-47.98125 -6.07955,-11.62525 -30.01663,-25.97538 -30.3054,-3.765 1.73927,17.56837 16.0451,29.34837 21.32272,44.6495 -7.05394,5.709 -12.64398,-17.73725 -18.71674,-23.0785 -7.53071,-12.35363 -11.483384,-41.55088 10.3933,-38.01088 17.49157,6.39963 24.93365,24.91388 39.48132,35.35613 13.44169,13.51887 29.83049,24.33225 47.50073,31.19437 -0.42644,2.20613 -4.52445,1.02638 -5.97221,1.63563 z m 13.34233,-16.85475 c -13.57965,-9.03425 -29.6942,-14.15938 -40.75562,-26.74825 -15.72894,-11.81363 -27.22454,-29.08275 -44.86681,-38.19213 -12.91048,-3.26712 -33.523074,-13.27912 -41.351444,3.18825 -8.92564,8.14313 -11.58116,32.01075 -16.77039,34.03163 -2.03064,-16.54675 7.76748,-33.4485 19.56125,-44.34938 13.297654,-8.48662 28.432364,0.5855 42.185244,2.73825 28.13395,15.2075 44.75451,46.21188 74.86367,58.6965 2.51707,2.30838 22.99483,14.94975 7.1341,10.63513 z m -184.484012,67.285 c 0.866375,-3.28375 2.767758,2.9005 0,0 z m -2.62765,-0.70475 c -2.248462,-5.0685 4.652228,1.547 0,0 z m 69.828778,-25.28913 c -11.96503,-11.91225 -20.74377,-26.31537 -25.807,-42.67862 -7.18669,-6.67413 1.53271,-32.71213 2.25637,-12.631 1.51604,13.68212 6.81764,27.79237 13.73679,39.38675 15.094594,0.015 -14.6932,-25.3465 -0.7429,-25.413 3.90637,10.875 10.7516,24.93637 12.85346,34.25212 4.940994,1.907 0.7416,6.08475 -2.29672,7.08375 z m -17.85422,-2.61425 c -8.92732,-15.636 -18.49381,-31.66462 -20.89977,-50.1515 -1.29246,-20.52925 4.70359,-41.99637 16.79006,-58.55687 10.45878,-11.00275 23.99266,-23.28775 40.554894,-18.5975 9.3299,1.18312 29.24156,9.90087 25.96502,18.08062 -10.05146,-6.013 -23.70392,-8.03425 -33.38998,-8.961 5.65633,-2.32562 17.58236,-3.12875 3.85631,-5.11862 -12.836694,-1.14825 -24.579294,6.92525 -32.374504,16.74187 -9.46094,9.2465 -12.975,23.38213 -15.48303,36.14138 -5.9961,16.18262 2.47392,35.08862 10.143,50.13862 -0.10537,4.90038 17.78598,23.614 4.838,20.283 z m 51.211254,-18.379 c -9.30826,-11.692 16.70229,-4.764 1.94475,0.69763 -0.64821,-0.23263 -1.29642,-0.46538 -1.94475,-0.69763 z m 83.68094,-33.691 c -14.44844,-9.59187 -28.7674,-19.51412 -42.25299,-30.033 -6.37878,-6.86137 -26.67335,-20.69112 -22.4103,-26.41187 13.63138,7.28787 23.88333,19.55562 36.27013,29.67012 10.43806,9.59238 23.87075,15.39125 34.79356,24.13038 -1.01191,2.1965 -4.42492,1.90837 -6.4004,2.64437 z m 7.97394,-7.8115 c -2.61963,-4.95412 4.28591,0.035 0,0 z M 8.2001075,653.2421 c -7.53844996,-9.44775 2.3457885,-35.67962 -6.27005,-36.49225 0.426738,8.47863 -5.606362,22.3845 -5.252887,5.56213 7.532937,-12.27338 5.971637,-28.00138 11.119287,-39.9875 0.971063,20.08625 0.624488,40.41362 2.8449755,60.51 -0.035,3.54412 0.06188,7.557 -2.4413255,10.40762 z M 217.00879,576.0851 c -10.73357,-10.778 -26.26684,-15.57262 -36.01949,-26.61562 -16.1576,-6.0385 -23.97824,-22.84838 -39.85865,-29.4475 -14.39123,-7.423 -31.24845,-15.87763 -47.370154,-7.99663 -14.83338,8.42725 -29.76076,22.423 -33.35749,39.5025 -2.20175,11.355 -11.07227,7.5115 -4.80369,-1.99787 6.36348,-20.193 24.19435,-34.73413 42.80958,-43.41625 19.199094,-3.78613 38.209254,2.91812 53.928174,13.70687 13.78745,8.59363 24.43237,21.26613 38.76732,29.1785 4.79723,9.36738 32.92591,15.62113 25.9044,27.086 z m -217.17640746,61.607 c -2.41815004,-3.63625 3.65257496,-0.216 0,0 z M 80.993816,596.52448 c -3.22218,-4.83313 -6.64933,-29.79525 0.0656,-13.02813 0.26131,2.48813 4.7996,14.38375 -0.0656,13.02813 z M 218.24856,541.39523 C 195.40185,526.5426 172.12746,512.3101 148.61035,498.60785 132.7295,492.39873 115.00859,485.7416 97.961606,491.5841 c -15.80399,-0.105 -30.40566,6.1805 -41.93784,16.57788 -12.60415,10.75275 -23.40687,23.16237 -30.979158,38.01287 -6.956812,8.1945 -9.438387,32.13613 -16.8854005,30.103 7.2630755,-23.28562 19.0759135,-45.64475 36.1822585,-63.16325 20.84863,-18.2515 48.00999,-30.16062 76.087094,-28.4835 14.22004,0.91688 27.47486,8.18663 40.15406,13.88813 15.86977,7.403 29.1702,18.54587 44.18795,26.93687 2.21587,5.70325 29.33825,13.34138 13.47799,15.93913 z m -92.9884,31.55212 c -8.35491,-5.67275 -6.84957,-15.256 0.85746,-4.966 1.89214,0.99938 3.6443,7.90425 -0.85746,4.966 z m -135.443614,44.446 c 8.9527995,-24.258 6.0894995,-52.77937 22.724075,-74.07 5.0869,6.90975 -13.03582546,27.31463 -11.79106346,41.0395 -1.95742504,11.17725 0.77527496,26.43188 -10.93301154,33.0305 z m 51.42101,-18.0625 c -6.1524,-10.06137 12.33413,-2.11 0,0 z m 45.82245,-19.43712 c -7.55417,-4.85388 -2.18616,-34.44063 2.09839,-22.03113 -1.60961,7.24238 0.47244,14.98313 -2.09839,22.03113 z m -45.98994,11.34812 c -2.3549,-7.78037 1.23885,-32.37125 2.84264,-11.72575 0.0113,3.5555 2.31573,10.58263 -2.84264,11.72575 z m 174.622084,-66.4215 c -25.34826,-17.55737 -52.09538,-34.67912 -81.97801,-43.19587 -24.34124,-5.28925 -50.827524,-0.64288 -71.186984,13.77562 -7.62672,4.778 -17.7901,5.48825 -5.74112,-1.28575 13.5062,-6.05637 25.42915,-15.51512 40.30133,-18.00862 24.590704,-4.109 51.161134,0.67587 72.218044,14.30275 17.08351,9.26425 34.672,18.0675 50.09603,29.92325 4.71961,3.38587 -0.86393,5.31587 -3.70929,4.48862 z m -228.886504,80.71963 c -5.356075,-15.26713 3.8016995,-31.52738 7.1170115,-46.44225 7.649938,-23.28138 20.4144135,-45.08438 37.7824785,-62.38775 10.31948,-2.676 -8.898765,16.56312 -13.19149,22.084 -9.3104005,11.85662 -12.4359885,27.10987 -20.8452635,39.491 -2.349437,14.10912 -8.1731115,27.64962 -8.0204115,42.04725 0.206725,1.8515 -0.457975,4.96637 -2.842325,5.20775 z m 90.46932,-33.85625 c -6.37023,-7.71575 8.77059,2.4955 0,0 z M 217.2614,510.12548 c -22.8383,-15.46288 -47.77278,-28.50088 -74.01465,-37.0585 -15.67544,-1.696 -31.94769,-6.45588 -47.571054,-1.34938 -12.14321,-2.90725 -21.1372,13.93275 -29.85366,9.78063 8.89795,-13.87813 27.95715,-13.98075 43.530854,-16.11163 19.80198,-0.0288 40.35695,1.47138 58.12603,11.268 18.86135,5.35375 33.16423,20.18238 50.75634,28.18338 2.6194,1.36825 3.19686,5.73762 -0.97386,5.2875 z m -239.702192,80.023 c -5.1832,-6.88675 9.565413,-33.047 5.680713,-15.12163 -2.874613,4.51438 1.065625,13.43713 -5.680713,15.12163 z M 88.740246,548.7256 c 1.14882,-9.091 23.618874,-16.79212 8.81836,-4.32462 -1.92357,1.53225 -6.66759,9.82437 -8.81836,4.32462 z m 126.809414,-51.092 c -9.07687,-8.76362 -27.9506,-17.36375 -32.99229,-22.97362 12.7439,-0.6905 29.0484,6.54975 38.45742,11.8035 -6.49633,-2.395 -21.86215,-1.6555 -7.98677,4.139 4.19572,2.10587 15.38599,11.048 2.52167,7.03112 z m -244.665514,77.69538 c -9.8181,-6.10388 12.42515,-27.27813 4.751587,-9.81713 -0.830625,2.9225 1.480638,12.928 -4.751587,9.81713 z m 14.136337,-10.9875 c -6.495537,-6.3945 9.3633875,-19.07613 3.693163,-4.62213 -0.249475,1.83038 -1.061113,5.33038 -3.693163,4.62213 z M 213.50039,475.21823 c -21.38093,-4.24838 -37.80768,-20.35613 -59.27662,-24.356 -14.04112,-6.12763 -28.43845,-8.27225 -43.71531,-7.487 -17.995944,-0.38213 -35.402174,4.1405 -51.926144,11.0945 -13.71911,4.9905 -27.1832,12.42625 -39.145045,19.815 -18.2750505,14.75437 -28.0973755,36.558 -41.235313,55.47975 -11.875425,7.26437 3.479163,-15.87888 7.439863,-19.744 7.2859995,-15.79675 20.3935615,-28.0525 32.242587,-40.30538 13.996528,-6.08425 27.052798,-13.80362 40.686558,-20.64612 13.2123,-7.12213 27.89312,-6.9115 42.125344,-10.032 13.66078,-0.79513 27.53345,-1.94163 40.79973,3.15225 16.61871,2.13312 31.42612,10.21562 47.00587,15.747 2.60494,9.80337 36.37031,10.12112 24.99848,17.282 l 0,0 z M 37.509516,537.4901 c 3.91245,-12.7735 17.23224,-19.15925 25.528,-28.767 4.50895,-8.32275 33.14503,-16.60787 14.49508,-5.15612 -15.49895,7.52525 -24.9427,22.508 -38.20286,32.86125 l -1.81955,1.06387 0,0 z m -75.448933,23.845 c 0.261188,-11.77412 8.149638,0.99375 0,0 z m 14.898325,-6.27312 c -1.0213,-20.05613 15.1095495,-35.0935 24.9083625,-50.97638 8.2535375,-17.44012 24.0330505,-30.16037 41.9833955,-36.6945 16.47692,-11.78 36.7745,-16.6815 56.659734,-18.24437 7.01662,0.22012 31.27854,-4.02963 28.23944,3.089 -14.0407,1.33125 -28.41709,-0.747 -42.149234,2.85637 -17.93954,-0.19887 -33.16782,9.57063 -47.54721,18.993 -23.961788,11.23113 -36.3872135,35.6175 -50.324638,56.5725 -4.131537,7.849 -3.710462,19.23275 -11.76985,24.40438 z m 11.620375,-6.92925 c 2.8422625,-17.33663 15.7866995,-30.41275 24.094088,-45.26488 14.348037,-18.29962 34.752975,-31.0375 56.177735,-39.435 13.664,-5.38775 28.47068,-5.64562 42.649484,-6.69737 8.76703,-2.03025 25.70052,5.06125 29.18551,0.62562 -17.75756,-12.58025 19.34951,1.82963 25.51626,4.7735 9.00888,0.38775 23.07819,12.40525 6.9751,10.60788 -13.39106,-9.604 -28.93346,-11.70988 -45.00502,-11.26188 -27.04192,-4.43675 -54.186854,4.13088 -78.576274,15.23238 -20.531383,10.471 -35.43832,29.04012 -45.5062585,49.39287 -9.173725,3.69338 -6.321562,20.05863 -15.5106245,22.02688 z m 26.144525,-7.93538 c 1.0121,-15.59575 18.414808,-26.64325 24.044178,-38.06062 3.45223,7.68987 12.68201,-2.06563 3.31177,6.38025 -12.281785,7.90725 -16.538948,23.97112 -27.355948,31.68037 z m -50.473112,13.98025 c -0.10825,-16.85075 15.197037,4.26375 0,0 z M 209.33557,459.72623 c -18.11045,-6.917 -41.56635,-15.7555 -55.68042,-23.427 15.7886,-6.34063 30.8513,9.24037 45.50277,14.63075 5.20828,-0.58363 27.34178,13.57 10.17765,8.79625 z M -39.924842,548.8146 c -8.174125,-6.87587 12.372175,-15.83587 2.376075,-3.20412 l -1.081562,1.51512 -1.294513,1.689 z m 11.44305,-6.0855 c -6.225462,-8.89587 9.827925,-2.31837 0,0 z m -8.344562,-6.81087 c -12.493038,-5.05263 11.25405,-21.1065 10.85015,-31.39375 3.851212,-10.11713 16.8170245,-11.46863 7.278787,0.98387 -8.745037,7.676 -14.2142,26.583 -18.128937,30.40988 z M 209.71917,446.34785 c -14.70041,-4.95387 -27.6901,-13.98562 -42.7689,-18.01675 -12.83892,-9.51225 -28.24013,-7.87712 -42.99095,-10.35825 -10.96872,-5.92137 -30.071814,3.488 -36.181874,-4.91087 15.153274,-3.2145 30.766454,-1.4985 45.942524,0.771 21.1223,2.32787 40.70465,11.48787 60.27802,19.147 3.33718,0.27075 31.60545,19.584 15.72118,13.36787 z M 39.875356,499.6346 c 1.93076,-8.73087 26.33771,-17.35087 21.66055,-13.18612 -7.66224,3.6815 -12.77067,11.993 -21.66055,13.18612 z m -87.531748,25.90538 c -0.177225,-5.6885 6.41405,0.63837 0,0 z m 2.675438,-4.8765 c -3.540188,-8.80225 20.794225,-28.17038 9.735875,-11.21325 -3.372325,2.51837 -5.266213,12.348 -9.735875,11.21325 z m 82.33184,-28.11013 c 4.8311,-8.05362 26.87696,-22.2375 26.00661,-15.63937 -7.91589,6.365 -17.12846,10.81437 -26.00661,15.63937 z m 165.470174,-63.0055 c -17.95024,-11.62987 -39.41635,-16.505 -60.16846,-20.4365 -25.05918,-3.58362 -53.206314,-7.502 -75.224034,8.23538 -13.26616,8.76562 -30.23288,11.4755 -41.375395,23.51587 -5.651088,3.10463 -22.3386755,21.35038 -22.0416135,12.75063 12.9300635,-11.277 24.7424505,-24.57925 41.3693485,-30.42788 14.50245,-6.52825 27.79304,-16.07675 43.27079,-20.022 17.061024,-2.52288 34.370464,-2.66675 51.366564,0.574 18.23666,0.72587 35.06465,8.90625 52.42416,13.556 3.37405,0.346 20.86659,12.28725 10.37864,12.2545 z m -252.776764,83.47088 c -2.5411,-16.37188 14.009637,-27.38025 22.6829,-39.15575 14.453525,-17.98925 31.1585115,-34.0975 48.7392,-48.98313 12.42011,-8.42737 26.35435,-15.74 41.16919,-18.31175 -3.74404,7.48775 -23.65144,10.84475 -32.932653,18.45275 -23.5349005,16.65363 -42.837987,38.63263 -61.334612,60.482 -5.2679,9.52438 -14.411963,19.22475 -18.324025,27.51588 z m 189.729614,-76.5065 c -13.4323,-10.0905 24.04531,3.798 2.04346,0.97275 -0.68118,-0.32438 -1.36231,-0.64863 -2.04346,-0.97275 z m -171.475377,62.35162 c 5.040425,-14.42837 17.0605,-24.75887 27.1051495,-35.52137 14.8447005,-4.76325 -7.3648615,13.00662 -10.3850365,18.1585 -5.268613,5.5625 -9.2645,15.37975 -16.720113,17.36287 z m 16.5868,-5.9315 c 6.4511495,-12.74475 18.6306875,-21.24275 26.746263,-32.83762 12.724412,-12.129 25.9823,-23.92225 42.71595,-30.22925 12.07894,-9.5875 26.6804,-9.67338 41.46832,-9.53375 6.656894,-0.79188 32.109894,0.32225 13.383104,2.90775 -28.195654,-0.57488 -55.650604,9.70937 -78.864562,25.2055 -14.0518,12.20287 -25.6819375,26.7245 -38.1193505,40.39525 -2.16,1.79962 -4.6227365,3.2835 -7.3297245,4.09212 z M 156.96381,430.87898 c -12.93887,-3.36675 -25.89931,-1.14463 -38.61026,1.34962 -21.251714,1.38975 -43.096694,3.9555 -62.749604,12.534 -11.56795,3.544 -21.22783,16.53025 -32.5307,16.98738 11.31076,-10.23788 25.05682,-18.039 38.87069,-24.19638 20.82685,-9.12387 43.826764,-8.64275 65.953024,-11.6815 5.01026,-0.48975 34.56365,-0.81575 29.06685,5.00688 z m -211.876489,68.275 c -1.14075,-18.02825 18.253212,-28.2595 27.881212,-41.07438 18.4051875,-16.45362 32.6385495,-37.917 55.343138,-49.14725 5.367435,-4.85125 32.080485,-12.15538 13.706645,-1.88662 -13.477545,6.28675 -26.26877,13.78712 -36.6934705,24.71412 -15.3351745,10.89225 -24.5330495,27.98838 -38.8676625,40.02163 -7.838812,8.59312 -14.169487,18.17 -21.369862,27.3725 z M 194.13025,408.05523 c -20.46319,-4.78626 -40.98574,-8.93326 -61.81983,-11.62913 -14.69225,-2.40113 -29.54636,0.511 -44.256584,-0.25788 -9.82038,6.23663 -27.62929,6.44863 -34.37915,4.25938 13.10206,-7.95963 31.10172,-7.29925 46.432684,-9.35838 14.30455,0.37788 29.05089,-0.19175 42.94098,2.59525 5.18701,3.75375 26.7965,3.71288 11.9272,-3.12112 -26.53655,-5.041 -54.00389,-8.09775 -80.874434,-2.86213 -27.91227,5.68063 -55.91302,16.17688 -76.0327455,37.09176 -6.121625,3.87175 -17.7061625,23.75275 -22.3901995,14.036 9.071737,-9.42688 21.5088365,-19.4425 33.5439745,-28.1755 21.7254905,-17.10488 48.6452505,-28.34151 76.4901005,-28.78163 25.683024,-3.41425 51.662614,-0.36275 76.372754,7.10962 9.00996,10.30375 34.18867,7.84963 36.34465,20.19176 l -1.47708,-0.15588 -2.82222,-0.9425 0,0 z m -5.14013,-16.14938 c -15.97821,-5.24575 -31.62225,-11.44175 -48.23433,-14.41813 -22.42533,-6.43187 -45.682404,-1.80087 -68.442374,-0.31925 -16.97107,2.9785 -34.72956,6.70188 -49.177483,16.66475 -13.9501125,7.83925 -25.9677625,19.23976 -40.006975,27.27801 -9.72265,8.95687 -19.308512,25.50637 -30.005062,29.091 10.249512,-15.973 22.656662,-31.01838 38.8969615,-41.78763 13.030888,-10.29313 28.6114635,-15.78613 41.5912085,-26.21588 14.50134,-3.493 29.18567,-8.75187 44.19085,-10.131 29.600034,-4.06587 60.612254,-2.45762 89.325024,6.74575 6.9848,-1.644 35.36905,15.41113 22.09563,13.2015 l -0.2336,-0.10875 c 0,0 0,0 0,0 z m -249.795712,90.87863 c 2.902163,-14.855 20.08775,-21.24688 27.359588,-33.69325 7.5945,-11.20513 12.892125,-0.83825 2.540975,4.62 -8.870875,11.15837 -20.790725,18.10437 -29.900563,29.07325 z m 2.383313,-16.3325 c -3.820888,-9.53313 12.438162,0.78262 0,0 z m 7.292337,-8.09075 c -0.509787,-9.33575 8.445788,-0.87513 0,0 z m -12.279775,1.72 c -1.448988,-8.76163 23.192263,-28.51963 11.65955,-10.76875 -2.6065,4.6055 -6.217512,9.46262 -11.65955,10.76875 z M 177.94326,373.13272 c -15.09585,0.1905 -28.43711,-9.16975 -43.6824,-8.9275 -28.26182,-4.03037 -56.704174,1.13638 -84.091004,8.02963 -18.99264,1.3455 -32.415298,14.41612 -49.39162346,20.89375 -13.53466154,9.18887 -25.12358654,21.00475 -38.24228654,30.74288 -4.452813,-10.11425 18.544512,-16.34738 23.815137,-26.33013 10.0684245,-9.84888 26.281325,-10.1025 36.13565,-20.74025 11.853433,-7.60913 25.982613,-8.79825 39.038923,-12.58 15.01266,1.90037 28.18003,-5.10875 42.653304,-6.96138 21.89453,-1.03937 44.02519,2.58613 64.29469,10.67075 21.41821,1.94263 -16.12028,-10.8015 -23.04686,-13.613 -19.31182,-7.82475 -40.36672,-4.068 -60.278604,-2.2345 -19.93312,8.6665 -44.2714,4.87613 -61.67439,19.53163 -8.0562,-1.51275 -23.90793846,20.48862 -24.27758846,9.61912 C 11.634833,370.41985 27.089046,363.1946 42.388596,357.3826 c 15.46112,-4.70438 31.83616,-3.14813 46.89281,-9.67438 21.633644,-7.51037 44.943944,-3.56425 65.528294,5.154 5.80137,-0.1325 43.79079,19.16975 23.13356,20.2705 z m -241.473215,71.37276 c 1.331188,-16.11563 32.676663,-27.27013 10.819638,-8.12125 -3.491137,2.86012 -7.2786,5.32675 -10.819638,8.12125 z m 15.760201,-5.985 c 4.7778,-13.40113 15.551025,0.4045 0,0 z m -21.180738,-0.33075 c 0.883337,-10.8595 8.542575,0.96712 0,0 z M 168.25189,351.13147 c -6.14918,-10.557 12.06967,-0.61637 0,0 z M -63.186767,431.1186 c 3.2446,-16.07062 22.184188,-24.42212 30.3352,-37.7855 2.151213,1.59787 1.203475,11.023 -1.125162,13.87188 -10.44805,1.68762 -20.576025,17.934 -29.210038,23.91362 z M 159.91267,349.26035 c -9.63471,-12.82338 -28.16548,-8.7605 -41.7472,-13.73613 -14.22193,0.8085 -28.296984,-0.15225 -42.423664,-1.70912 -15.26012,-0.26188 -29.57522,5.83587 -44.48317,8.30887 -13.179078,6.68088 -26.6521905,12.46938 -38.9894905,21.08375 -14.6659375,9.75938 -27.9189875,22.244 -38.4098745,36.01988 -12.70525,-4.523 13.451812,-19.63938 18.6219,-26.99825 13.656575,-10.58388 27.20422454,-21.53363 43.377862,-28.2675 15.787933,-8.59763 33.636263,-10.94338 50.881473,-14.45713 25.51005,-0.44862 51.282864,0.39925 76.283584,5.827 6.09851,-1.11237 32.86656,9.912 16.88858,13.92863 z M -26.710692,401.6531 c -2.170037,-11.65525 21.3390745,-9.21663 4.600738,-3.48213 -2.326938,-0.173 -2.108563,5.425 -4.600738,3.48213 z m -34.899875,10.934 c -8.787988,-12.31963 22.30255,-12.979 4.353738,-3.69425 -1.187038,1.38513 -1.8761,4.47375 -4.353738,3.69425 z m 36.834763,-21.2835 c 3.966912,-11.93225 19.1673995,-21.44863 29.5539495,-26.8005 2.165237,8.85512 -17.2469625,13.45925 -21.5143245,23.56487 -2.3015,1.80925 -5.106163,3.00925 -8.039625,3.23563 z m 166.792774,-64.424 c -22.34691,-3.18438 -44.825784,-4.905 -67.414184,-4.2385 -15.89965,-0.54438 -31.5875,5.32462 -46.701315,9.81362 -13.860638,7.85088 -30.1801885,10.67575 -42.759313,20.55313 -7.832825,4.29012 -24.544187,26.44875 -29.033862,17.29075 13.02375,-7.59675 20.587537,-22.27363 35.2879615,-27.56175 15.3944,-7.31038 31.3215255,-13.33975 46.7475585,-20.27688 14.0422,-3.82562 27.55814,-6.567 42.06119,-4.805 17.23334,-0.31075 34.451944,2.21538 51.676364,1.01375 2.32542,2.1145 25.62642,7.722 10.1356,8.21088 z m -205.354662,71.38275 c -3.084463,-11.04925 25.461363,-29.85413 12.2928,-11.16388 -3.61395,4.2235 -7.964562,7.71238 -12.2928,11.16388 z M 86.010306,342.99047 c -20.96859,2.54 -41.71026,6.77013 -61.094673,15.41388 -6.617637,3.88875 -20.4352755,3.77525 -6.966525,-2.40763 16.107388,-6.60712 32.671048,-13.33637 49.918038,-16.113 2.52127,-1.35675 29.12521,-0.10875 18.14316,3.10675 z m 33.623434,-30.55825 c -18.77942,-2.98575 -37.772934,-1.224 -56.660074,-1.58725 -7.13792,1.41013 -36.047808,9.0015 -16.96311,-1.02937 17.78609,-5.944 36.89656,-1.8995 55.274144,-3.83713 3.91026,-1.549 38.57241,4.46438 18.34904,6.45375 z M -53.305979,369.9531 c 3.262362,-13.33825 17.62165,-19.7515 26.156412,-29.42125 13.567525,-7.16863 26.23151254,-20.47938 40.603363,-22.33213 -12.87911346,13.79775 -30.576863,19.61675 -44.176163,31.8735 -7.271762,6.91463 -14.240287,14.20475 -22.583612,19.87988 z m 66.975812,-40.08063 c -0.0063,-11.25287 13.246788,-0.13612 0,0 z m 16.3347,-13.26987 c -2.418187,-3.63613 3.652553,-0.21588 0,0 z m -8.19825,0.91625 c -0.415887,-7.98825 4.443813,4.98212 0,0 z m -4.029725,-4.718 c -0.798875,-3.47513 3.909513,0.86812 0,0 z"
       style="fill:#000000;fill-opacity:1;stroke:#000000;stroke-width:0.79954451000000004;stroke-opacity:1"
       inkscape:connector-curvature="0" />
  </g>
</svg>
